<?xml version="1.0" encoding="utf-8"?>
<!-- Generator: Adobe Illustrator 15.1.0, SVG Export Plug-In . SVG Version: 6.00 Build 0)  -->
<!DOCTYPE svg PUBLIC "-//W3C//DTD SVG 1.1//EN" "http://www.w3.org/Graphics/SVG/1.1/DTD/svg11.dtd">
<svg version="1.1" id="Layer_1" xmlns="http://www.w3.org/2000/svg" xmlns:xlink="http://www.w3.org/1999/xlink" x="0px" y="0px"
	 width="306px" height="396px" viewBox="0 0 306 396" enable-background="new 0 0 306 396" xml:space="preserve">
<g>
	<path fill="#FFC20E" d="M240.172,384.354c-3.929,0-7.652-0.665-11.067-1.975c-2.635-1.005-5.138-2.384-7.425-4.09
		c-1.105-0.825-2.191-1.756-3.214-2.761c-1.154-1.148-2.173-2.343-3.068-3.588c-3.378-4.682-5.172-10.327-5.144-16.083
		c-4.389,2.397-8.793,4.374-12.748,6.148c-2.1,0.942-4.082,1.831-5.963,2.735c-13.775,6.61-32.115,9.47-38.429,9.47h-0.228
		c-6.315,0-24.653-2.859-38.427-9.47c-1.88-0.903-3.862-1.792-5.961-2.733c-3.949-1.771-8.346-3.744-12.748-6.148
		c0.037,5.713-1.76,11.383-5.159,16.096c-0.878,1.225-1.902,2.426-3.027,3.542c-1.049,1.033-2.136,1.965-3.255,2.8
		c-2.273,1.697-4.777,3.076-7.429,4.088c-4.838,1.856-10.384,2.41-16.141,1.608c-9.262-1.284-16.115-7.774-16.866-8.51l-0.073-0.073
		c-3.074-3.085-5.476-6.763-7.139-10.933c-1.519-3.807-2.357-7.83-2.49-11.954c-0.047-1.272-0.021-2.551,0.078-3.827
		c-1.828-0.408-3.625-0.963-5.377-1.663c-4.167-1.662-7.847-4.063-10.932-7.137l-0.072-0.072c-0.736-0.751-7.226-7.605-8.512-16.87
		c-0.808-5.816-0.265-11.251,1.616-16.152c1.005-2.636,2.384-5.14,4.092-7.426c0.826-1.108,1.759-2.197,2.766-3.219
		c1.141-1.148,2.342-2.174,3.593-3.07c4.621-3.333,10.361-5.149,16.121-5.133C31.452,276.051,19.142,242.767,19.142,198
		c0-44.73,12.29-77.999,18.405-89.953c-0.05,0-0.1,0-0.15,0c-5.709,0-11.392-1.83-15.998-5.152c-1.226-0.877-2.427-1.904-3.545-3.03
		c-1.029-1.045-1.962-2.131-2.797-3.253c-1.699-2.274-3.077-4.778-4.088-7.43C9.094,84.298,8.55,78.863,9.359,73.045
		c1.285-9.264,7.775-16.118,8.511-16.869l0.072-0.072c3.085-3.074,6.765-5.475,10.934-7.139c1.75-0.698,3.546-1.253,5.377-1.662
		c-0.1-1.286-0.126-2.577-0.079-3.864c0.131-4.088,0.97-8.111,2.49-11.921c1.659-4.161,4.06-7.84,7.135-10.928l0.075-0.075
		c0.751-0.735,7.605-7.225,16.87-8.512c5.753-0.798,11.293-0.249,16.152,1.616c2.635,1.005,5.139,2.383,7.425,4.091
		c1.105,0.822,2.192,1.755,3.218,2.765c1.15,1.143,2.171,2.34,3.066,3.587c3.374,4.679,5.169,10.324,5.141,16.079
		c4.39-2.399,8.795-4.375,12.752-6.151c2.099-0.942,4.081-1.831,5.961-2.733c13.774-6.611,32.113-9.472,38.429-9.472l0.112,0
		l0.112,0c6.314,0,24.655,2.86,38.43,9.472c1.879,0.901,3.858,1.791,5.955,2.731c3.951,1.772,8.349,3.746,12.752,6.151
		c-0.037-5.713,1.761-11.384,5.158-16.095c0.878-1.227,1.903-2.428,3.03-3.545c1.045-1.029,2.132-1.963,3.253-2.797
		c2.273-1.7,4.777-3.077,7.429-4.089c4.836-1.854,10.379-2.409,16.139-1.609c9.263,1.286,16.117,7.776,16.868,8.512l0.073,0.072
		c3.072,3.085,5.476,6.764,7.137,10.933c1.521,3.807,2.358,7.828,2.492,11.953c0.046,1.273,0.02,2.552-0.079,3.828
		c1.829,0.409,3.625,0.964,5.377,1.663c4.17,1.663,7.848,4.064,10.932,7.138l0.072,0.072c0.735,0.75,7.227,7.604,8.513,16.87
		c0.808,5.819,0.264,11.254-1.617,16.153c-1.004,2.635-2.382,5.139-4.091,7.425c-0.827,1.113-1.763,2.201-2.771,3.223
		c-1.136,1.145-2.337,2.171-3.589,3.066c-4.582,3.304-10.264,5.134-15.973,5.134c-0.05,0-0.099,0-0.147,0
		c6.095,11.901,18.404,45.188,18.404,89.953c0,44.73-12.291,77.998-18.406,89.954c0.05,0,0.099,0,0.149,0
		c5.709,0,11.391,1.828,15.998,5.151c1.227,0.877,2.428,1.903,3.546,3.032c1.025,1.038,1.961,2.127,2.798,3.251
		c1.699,2.273,3.077,4.777,4.088,7.429c1.874,4.883,2.418,10.317,1.611,16.137c-1.287,9.266-7.778,16.119-8.514,16.87l-0.072,0.072
		c-3.084,3.072-6.762,5.475-10.934,7.138c-1.751,0.7-3.545,1.254-5.377,1.662c0.1,1.287,0.126,2.576,0.08,3.864
		c-0.131,4.084-0.969,8.107-2.492,11.919c-1.659,4.163-4.06,7.842-7.133,10.93l-0.076,0.075c-0.751,0.734-7.605,7.225-16.871,8.509
		C243.548,384.232,241.834,384.354,240.172,384.354z M78.339,316.588c10.923,0,20.552,1.13,29.478,2.286
		c2.346,0.315,5.268,0.82,8.651,1.404c10.071,1.74,23.864,4.121,36.532,4.121c12.669,0,26.46-2.381,36.53-4.121
		c3.384-0.584,6.305-1.089,8.613-1.398c8.968-1.162,18.597-2.292,29.517-2.292l0.484,0.001c0.539,0.006,1.991-0.156,1.496-2.442
		c-0.244-2.547-0.374-5.25-0.403-8.248c-0.035-11.161,1.109-20.946,2.283-30.017c1.142-8.49,5.527-60.279,5.527-77.882
		c0-17.602-4.386-69.391-5.521-77.842c-1.18-9.109-2.324-18.894-2.289-30.001c0.029-3.049,0.159-5.755,0.403-8.303
		c0.169-2.158-0.92-2.448-1.437-2.442l-0.536,0c-10.927,0-20.557-1.129-29.484-2.286c-2.348-0.315-5.271-0.82-8.655-1.404
		C179.457,73.982,165.667,71.6,153,71.6c-12.666,0-26.458,2.382-36.527,4.121c-3.385,0.584-6.309,1.089-8.618,1.399
		c-8.967,1.163-18.599,2.292-29.522,2.292c0,0-2.014,0.284-1.973,2.442c0.241,2.547,0.374,5.25,0.402,8.247
		c0.035,11.164-1.109,20.948-2.285,30.018c-1.14,8.491-5.525,60.28-5.525,77.881c0,17.603,4.385,69.392,5.521,77.843
		c1.18,9.109,2.325,18.895,2.29,30.001c-0.029,3.05-0.162,5.756-0.403,8.303c-0.366,2.125,0.919,2.448,1.438,2.442L78.339,316.588z"
		/>
</g>
<path fill="#FFF200" d="M284.148,304.446c-0.615-0.828-1.291-1.611-2.016-2.345c-0.759-0.766-1.596-1.488-2.487-2.126
	c-3.573-2.578-8.1-3.855-12.538-3.49c-4.441,0.315-8.807,2.315-11.983,5.512c0,0.001,0,0.001,0,0.001
	c-2.988,2.958-4.627,7.085-4.649,11.008c-0.071,3.942,1.416,7.694,3.745,10.38c1.137,1.316,2.537,2.514,4.173,3.355
	c1.622,0.846,3.441,1.312,5.189,1.343c1.749,0.034,3.396-0.345,4.787-0.955c1.401-0.607,2.554-1.436,3.491-2.313
	c0.479-0.447,0.863-0.883,1.267-1.378c0.429-0.529,0.798-1.101,1.093-1.686c0.593-1.175,0.872-2.407,0.911-3.514
	c0.066-2.243-0.712-3.908-1.493-4.998c-0.803-1.101-1.655-1.686-2.301-1.956c-0.654-0.266-1.116-0.223-1.359,0.021
	c-0.521,0.504-0.061,1.761,0.021,3.478c0.035,0.848-0.073,1.805-0.475,2.562c-0.197,0.378-0.454,0.7-0.771,0.971
	c-0.162,0.139-0.338,0.263-0.537,0.381c-0.228,0.145-0.521,0.343-0.791,0.477c-1.113,0.591-2.295,0.772-3.239,0.512
	c-0.949-0.267-1.778-0.85-2.655-2.134c-0.809-1.216-1.232-2.715-1.113-4.243c0.112-1.527,0.756-2.998,1.886-4.129l0.001-0.001
	c1.507-1.505,3.498-2.424,5.595-2.584c2.093-0.179,4.208,0.416,5.878,1.604c0.423,0.299,0.811,0.629,1.189,1.003
	c0.407,0.408,0.786,0.839,1.128,1.292c0.689,0.909,1.249,1.905,1.66,2.959c0.83,2.103,1.064,4.435,0.697,6.643
	c-0.365,2.213-1.322,4.282-2.739,5.978c-0.212,0.257-0.448,0.511-0.696,0.763c-2.563,2.577-6.612,3.996-10.474,4.131
	c-0.25,0.012-0.498,0-0.747-0.002c-6.452,0.016-10.631-4.241-11.033-4.541c-0.834-0.863-1.575-1.818-2.204-2.87
	c-0.239-0.396-0.458-0.808-0.668-1.225c-0.215-0.432-0.43-0.899-0.619-1.347c-0.381-0.904-0.705-1.81-0.951-2.711
	c-1.019-3.604-0.821-7.172,0.305-10.84c1.113-3.657,3.026-7.305,5.049-10.865c2.034-3.568,4.191-7.076,6.205-10.562
	c4.062-6.955,18.511-40.629,18.511-88.001c0-47.373-14.448-81.045-18.511-88.001c-2.014-3.485-4.171-6.994-6.205-10.562
	c-2.022-3.561-3.936-7.209-5.049-10.866c-1.126-3.667-1.323-7.234-0.305-10.838c0.246-0.901,0.57-1.807,0.951-2.711
	c0.189-0.447,0.404-0.915,0.619-1.346c0.21-0.419,0.429-0.83,0.668-1.225c0.629-1.053,1.37-2.008,2.204-2.87
	c0.402-0.301,4.581-4.558,11.033-4.543c0.249-0.001,0.497-0.013,0.747-0.001c3.861,0.136,7.91,1.554,10.474,4.132
	c0.248,0.252,0.484,0.506,0.696,0.762c1.417,1.695,2.374,3.764,2.739,5.978c0.367,2.208,0.133,4.54-0.697,6.644
	c-0.411,1.053-0.971,2.048-1.66,2.957c-0.342,0.454-0.721,0.886-1.128,1.294c-0.379,0.374-0.767,0.703-1.189,1.002
	c-1.67,1.188-3.785,1.782-5.878,1.604c-2.097-0.16-4.088-1.078-5.595-2.584l-0.001-0.001c-1.13-1.131-1.773-2.602-1.886-4.129
	c-0.119-1.529,0.305-3.027,1.113-4.242c0.877-1.284,1.706-1.868,2.655-2.135c0.944-0.261,2.126-0.078,3.239,0.513
	c0.27,0.133,0.563,0.331,0.791,0.476c0.199,0.119,0.375,0.243,0.537,0.381c0.317,0.271,0.574,0.593,0.771,0.971
	c0.401,0.756,0.51,1.714,0.475,2.562c-0.082,1.717-0.542,2.974-0.021,3.477c0.243,0.244,0.705,0.288,1.359,0.021
	c0.646-0.271,1.498-0.854,2.301-1.956c0.781-1.089,1.56-2.755,1.493-4.997c-0.039-1.107-0.318-2.339-0.911-3.515
	c-0.295-0.586-0.664-1.156-1.093-1.686c-0.403-0.495-0.788-0.932-1.267-1.378c-0.938-0.878-2.09-1.707-3.491-2.313
	c-1.392-0.609-3.038-0.99-4.787-0.954c-1.748,0.028-3.567,0.495-5.189,1.341c-1.636,0.842-3.036,2.041-4.173,3.357
	c-2.329,2.686-3.816,6.438-3.745,10.379c0.022,3.924,1.661,8.051,4.649,11.008c0,0,0,0,0,0.001
	c3.177,3.197,7.542,5.195,11.983,5.513c4.438,0.364,8.965-0.914,12.538-3.491c0.892-0.638,1.729-1.361,2.487-2.126
	c0.725-0.734,1.4-1.517,2.016-2.345c1.236-1.653,2.24-3.476,2.969-5.39c1.469-3.827,1.686-7.979,1.135-11.953
	c-0.939-6.766-6.172-12.106-6.172-12.106c-2.369-2.359-5.164-4.103-8.093-5.271c-2.936-1.171-6.012-1.793-9.09-1.892
	c-1.231-0.046-2.469,0.023-3.697,0.155c1.558-3.552,2.303-7.474,2.162-11.347c-0.1-3.077-0.722-6.155-1.894-9.088
	c-1.168-2.929-2.912-5.725-5.271-8.093c0,0-5.341-5.233-12.107-6.172c-3.974-0.552-8.126-0.334-11.952,1.135
	c-1.914,0.729-3.737,1.733-5.391,2.969c-0.826,0.615-1.609,1.292-2.345,2.016c-0.764,0.758-1.487,1.597-2.126,2.488
	c-2.576,3.573-3.854,8.1-3.49,12.538c0.317,4.441,2.315,8.807,5.513,11.982c0,0,0,0,0,0c2.958,2.989,7.085,4.627,11.008,4.65
	c3.942,0.07,7.694-1.416,10.38-3.746c1.316-1.136,2.516-2.536,3.357-4.172c0.846-1.622,1.312-3.442,1.341-5.188
	c0.036-1.75-0.345-3.396-0.955-4.789c-0.605-1.4-1.436-2.552-2.313-3.491c-0.445-0.479-0.881-0.862-1.378-1.267
	c-0.529-0.429-1.099-0.797-1.686-1.094c-1.175-0.592-2.407-0.871-3.514-0.91c-2.241-0.066-3.908,0.711-4.997,1.493
	c-1.102,0.802-1.685,1.655-1.957,2.3c-0.266,0.654-0.223,1.116,0.022,1.36c0.504,0.521,1.759,0.06,3.476-0.022
	c0.848-0.035,1.807,0.075,2.562,0.474c0.378,0.199,0.7,0.455,0.971,0.772c0.139,0.161,0.263,0.338,0.381,0.536
	c0.146,0.23,0.343,0.523,0.477,0.793c0.591,1.111,0.772,2.294,0.514,3.238c-0.269,0.95-0.852,1.779-2.136,2.655
	c-1.215,0.809-2.713,1.233-4.241,1.114c-1.528-0.113-2.998-0.756-4.13-1.887l-0.001,0c-1.506-1.507-2.425-3.499-2.585-5.595
	c-0.179-2.092,0.416-4.207,1.604-5.878c0.301-0.421,0.629-0.81,1.003-1.189c0.408-0.407,0.839-0.786,1.294-1.128
	c0.909-0.689,1.904-1.249,2.957-1.659c2.104-0.831,4.435-1.064,6.643-0.697c2.215,0.364,4.282,1.322,5.978,2.738
	c0.257,0.212,0.511,0.45,0.763,0.697c2.577,2.563,3.996,6.612,4.133,10.474c0.01,0.25,0,0.498-0.002,0.747
	c0.014,6.451-4.243,10.631-4.543,11.033c-0.861,0.833-1.818,1.575-2.87,2.203c-0.396,0.24-0.806,0.459-1.225,0.669
	c-0.432,0.215-0.899,0.429-1.347,0.619c-0.904,0.381-1.81,0.706-2.711,0.952c-3.604,1.018-7.172,0.82-10.838-0.306
	c-3.657-1.111-7.307-3.026-10.867-5.047c-3.566-2.034-7.076-4.192-10.562-6.206c-6.955-4.062-14.125-6.849-20.427-9.874
	c-12.217-5.863-29.359-8.674-34.876-8.637c-5.518-0.038-22.66,2.774-34.877,8.637c-6.302,3.025-13.471,5.811-20.428,9.874
	c-3.484,2.013-6.994,4.172-10.561,6.206c-3.562,2.021-7.208,3.936-10.867,5.047c-3.667,1.126-7.234,1.324-10.839,0.306
	c-0.901-0.246-1.806-0.57-2.71-0.952c-0.448-0.189-0.915-0.403-1.347-0.619c-0.418-0.21-0.83-0.429-1.226-0.669
	c-1.053-0.628-2.008-1.37-2.869-2.203c-0.302-0.402-4.557-4.583-4.543-11.033c-0.001-0.25-0.012-0.497-0.002-0.747
	c0.136-3.862,1.554-7.911,4.132-10.474c0.252-0.247,0.507-0.484,0.763-0.697c1.694-1.417,3.765-2.375,5.977-2.738
	c2.209-0.367,4.541-0.134,6.643,0.697c1.054,0.411,2.049,0.97,2.957,1.659c0.456,0.343,0.886,0.722,1.294,1.128
	c0.374,0.379,0.703,0.768,1.003,1.189c1.188,1.672,1.782,3.786,1.602,5.878c-0.161,2.096-1.078,4.088-2.583,5.595l0,0
	c-1.131,1.131-2.603,1.773-4.13,1.887c-1.528,0.119-3.026-0.305-4.242-1.114c-1.284-0.876-1.867-1.705-2.137-2.655
	c-0.259-0.944-0.077-2.126,0.514-3.238c0.134-0.27,0.331-0.563,0.477-0.793c0.118-0.198,0.244-0.375,0.379-0.536
	c0.271-0.317,0.593-0.574,0.971-0.772c0.756-0.399,1.714-0.509,2.561-0.474c1.718,0.082,2.976,0.543,3.478,0.022
	c0.244-0.244,0.288-0.706,0.021-1.36c-0.271-0.645-0.853-1.498-1.955-2.3c-1.09-0.782-2.756-1.559-4.998-1.493
	c-1.107,0.039-2.339,0.318-3.515,0.91c-0.586,0.296-1.155,0.665-1.685,1.094c-0.495,0.404-0.931,0.788-1.378,1.267
	c-0.877,0.938-1.707,2.09-2.313,3.491c-0.608,1.393-0.987,3.039-0.953,4.789c0.029,1.746,0.496,3.567,1.341,5.188
	c0.841,1.636,2.04,3.036,3.356,4.172c2.685,2.33,6.437,3.816,10.379,3.746c3.923-0.023,8.05-1.662,11.008-4.65c0,0,0,0,0,0
	c3.197-3.175,5.196-7.541,5.513-11.982c0.364-4.438-0.914-8.965-3.49-12.538c-0.639-0.891-1.362-1.729-2.125-2.488
	c-0.735-0.724-1.518-1.4-2.346-2.016c-1.653-1.235-3.476-2.239-5.39-2.969c-3.828-1.469-7.979-1.687-11.952-1.135
	c-6.766,0.939-12.108,6.172-12.108,6.172c-2.359,2.369-4.104,5.164-5.271,8.093c-1.171,2.934-1.793,6.011-1.893,9.088
	c-0.142,3.873,0.604,7.795,2.162,11.347c-1.23-0.132-2.466-0.201-3.699-0.155c-3.077,0.099-6.154,0.721-9.088,1.892
	c-2.93,1.169-5.725,2.912-8.093,5.271c0,0-5.233,5.341-6.172,12.106c-0.553,3.974-0.335,8.126,1.134,11.953
	c0.73,1.914,1.733,3.736,2.969,5.39c0.616,0.828,1.293,1.61,2.016,2.345c0.759,0.765,1.597,1.488,2.488,2.126
	c3.573,2.577,8.101,3.855,12.539,3.491c4.44-0.317,8.806-2.315,11.982-5.513c0-0.001,0-0.001,0-0.001
	c2.988-2.957,4.627-7.084,4.649-11.008c0.071-3.942-1.415-7.693-3.745-10.379c-1.136-1.316-2.537-2.515-4.172-3.357
	c-1.622-0.846-3.443-1.312-5.189-1.341c-1.749-0.036-3.396,0.345-4.789,0.954c-1.4,0.606-2.552,1.436-3.489,2.313
	c-0.48,0.446-0.864,0.883-1.268,1.378c-0.43,0.529-0.797,1.1-1.093,1.686c-0.592,1.176-0.872,2.407-0.911,3.515
	c-0.066,2.242,0.713,3.908,1.494,4.997c0.801,1.102,1.655,1.685,2.299,1.956c0.655,0.267,1.117,0.223,1.36-0.021
	c0.521-0.503,0.061-1.76-0.021-3.477c-0.035-0.848,0.074-1.806,0.474-2.562c0.199-0.378,0.455-0.699,0.772-0.971
	c0.162-0.138,0.338-0.262,0.537-0.381c0.229-0.145,0.521-0.343,0.792-0.476c1.112-0.591,2.294-0.773,3.238-0.513
	c0.95,0.267,1.778,0.851,2.655,2.135c0.809,1.215,1.233,2.713,1.113,4.242c-0.112,1.528-0.755,2.999-1.887,4.129l-0.001,0.001
	c-1.506,1.506-3.498,2.424-5.595,2.584c-2.093,0.179-4.206-0.416-5.877-1.604c-0.422-0.299-0.811-0.628-1.189-1.002
	c-0.407-0.408-0.786-0.84-1.128-1.294c-0.689-0.909-1.249-1.904-1.66-2.957c-0.831-2.104-1.064-4.436-0.696-6.644
	c0.363-2.214,1.321-4.282,2.737-5.978c0.213-0.256,0.451-0.51,0.698-0.762c2.564-2.578,6.612-3.996,10.473-4.132
	c0.25-0.012,0.499,0,0.748,0.001c6.451-0.015,10.63,4.242,11.033,4.543c0.832,0.862,1.574,1.817,2.203,2.87
	c0.239,0.395,0.458,0.806,0.669,1.225c0.215,0.432,0.428,0.899,0.617,1.346c0.383,0.905,0.706,1.81,0.952,2.711
	c1.019,3.604,0.821,7.171-0.305,10.838c-1.112,3.657-3.027,7.306-5.048,10.866c-2.034,3.568-4.193,7.077-6.206,10.562
	C42.06,116.955,27.613,150.627,27.613,198c0,47.373,14.447,81.046,18.509,88.001c2.013,3.486,4.172,6.994,6.206,10.562
	c2.021,3.561,3.936,7.208,5.048,10.865c1.126,3.668,1.323,7.235,0.305,10.84c-0.246,0.901-0.569,1.807-0.952,2.711
	c-0.189,0.447-0.402,0.915-0.617,1.347c-0.211,0.417-0.43,0.829-0.669,1.225c-0.629,1.052-1.371,2.007-2.203,2.87
	c-0.403,0.3-4.582,4.557-11.033,4.541c-0.249,0.002-0.498,0.014-0.748,0.002c-3.861-0.135-7.909-1.554-10.473-4.131
	c-0.247-0.252-0.484-0.506-0.698-0.763c-1.417-1.695-2.375-3.765-2.737-5.978c-0.368-2.208-0.135-4.54,0.696-6.643
	c0.412-1.054,0.971-2.05,1.66-2.959c0.343-0.453,0.722-0.884,1.128-1.292c0.378-0.374,0.767-0.704,1.189-1.003
	c1.671-1.188,3.785-1.782,5.877-1.604c2.097,0.16,4.089,1.079,5.595,2.584l0.001,0.001c1.132,1.131,1.774,2.602,1.887,4.129
	c0.12,1.528-0.305,3.027-1.113,4.243c-0.877,1.284-1.705,1.867-2.655,2.134c-0.944,0.261-2.126,0.079-3.238-0.512
	c-0.271-0.134-0.563-0.332-0.792-0.477c-0.199-0.118-0.375-0.242-0.537-0.381c-0.317-0.271-0.573-0.593-0.772-0.971
	c-0.399-0.757-0.509-1.714-0.474-2.562c0.082-1.717,0.542-2.974,0.021-3.478c-0.243-0.243-0.706-0.286-1.36-0.021
	c-0.644,0.271-1.498,0.855-2.299,1.956c-0.781,1.09-1.56,2.755-1.494,4.998c0.04,1.106,0.319,2.339,0.911,3.514
	c0.296,0.585,0.663,1.156,1.093,1.686c0.403,0.495,0.788,0.931,1.268,1.378c0.938,0.878,2.089,1.706,3.489,2.313
	c1.393,0.61,3.04,0.989,4.789,0.955c1.746-0.03,3.567-0.497,5.189-1.343c1.635-0.842,3.036-2.039,4.172-3.355
	c2.33-2.686,3.816-6.438,3.745-10.38c-0.022-3.923-1.661-8.05-4.649-11.008c0,0,0,0,0-0.001c-3.177-3.196-7.542-5.196-11.982-5.512
	c-4.438-0.365-8.966,0.912-12.539,3.49c-0.891,0.638-1.729,1.36-2.488,2.126c-0.723,0.733-1.399,1.517-2.016,2.345
	c-1.235,1.653-2.238,3.477-2.969,5.389c-1.469,3.828-1.687,7.98-1.134,11.954c0.939,6.765,6.172,12.107,6.172,12.107
	c2.368,2.358,5.163,4.102,8.093,5.271c2.934,1.17,6.011,1.793,9.088,1.892c1.233,0.046,2.469-0.023,3.699-0.155
	c-1.559,3.553-2.304,7.475-2.162,11.348c0.1,3.078,0.722,6.154,1.893,9.088c1.168,2.931,2.911,5.725,5.271,8.093
	c0,0,5.342,5.233,12.107,6.173c3.973,0.553,8.126,0.334,11.953-1.135c1.913-0.729,3.736-1.732,5.39-2.969
	c0.827-0.615,1.61-1.291,2.345-2.014c0.765-0.76,1.487-1.598,2.126-2.489c2.577-3.571,3.854-8.101,3.49-12.538
	c-0.316-4.44-2.315-8.807-5.513-11.982c-0.001,0-0.001,0-0.001,0c-2.957-2.988-7.084-4.627-11.007-4.649
	c-3.942-0.071-7.694,1.414-10.38,3.745c-1.316,1.136-2.515,2.537-3.356,4.171c-0.846,1.622-1.312,3.443-1.342,5.189
	c-0.035,1.749,0.345,3.397,0.954,4.789c0.607,1.4,1.437,2.552,2.313,3.489c0.447,0.48,0.883,0.865,1.378,1.269
	c0.529,0.429,1.101,0.796,1.686,1.093c1.176,0.592,2.407,0.871,3.515,0.911c2.242,0.065,3.908-0.713,4.998-1.494
	c1.101-0.802,1.685-1.655,1.955-2.3c0.267-0.654,0.223-1.116-0.021-1.359c-0.504-0.521-1.761-0.061-3.478,0.021
	c-0.847,0.035-1.805-0.075-2.562-0.475c-0.378-0.199-0.699-0.454-0.971-0.771c-0.138-0.162-0.262-0.338-0.38-0.537
	c-0.146-0.229-0.343-0.521-0.477-0.793c-0.591-1.111-0.772-2.293-0.513-3.237c0.268-0.951,0.851-1.778,2.135-2.655
	c1.216-0.809,2.714-1.234,4.242-1.113c1.527,0.112,2.998,0.754,4.13,1.886l0,0.001c1.505,1.507,2.423,3.498,2.583,5.595
	c0.18,2.093-0.415,4.207-1.603,5.878c-0.3,0.423-0.629,0.811-1.003,1.189c-0.408,0.406-0.839,0.785-1.293,1.129
	c-0.909,0.688-1.904,1.248-2.958,1.66c-2.103,0.83-4.435,1.063-6.644,0.695c-2.213-0.363-4.282-1.32-5.977-2.738
	c-0.257-0.213-0.511-0.449-0.763-0.697c-2.578-2.563-3.996-6.611-4.132-10.473c-0.011-0.25,0-0.499,0.002-0.748
	c-0.015-6.451,4.241-10.63,4.542-11.032c0.862-0.834,1.818-1.575,2.87-2.204c0.395-0.239,0.807-0.458,1.225-0.67
	c0.432-0.215,0.899-0.428,1.347-0.617c0.904-0.383,1.81-0.705,2.711-0.951c3.604-1.02,7.171-0.821,10.839,0.305
	c3.657,1.111,7.305,3.026,10.865,5.047c3.568,2.034,7.077,4.193,10.562,6.207c6.956,4.062,14.125,6.849,20.428,9.873
	c12.217,5.862,29.359,8.674,34.876,8.637c5.517,0.037,22.66-2.774,34.877-8.637c6.301-3.024,13.471-5.811,20.427-9.873
	c3.485-2.014,6.995-4.173,10.561-6.207c3.562-2.021,7.21-3.936,10.868-5.047c3.666-1.126,7.234-1.324,10.838-0.305
	c0.902,0.246,1.807,0.568,2.711,0.951c0.449,0.189,0.914,0.402,1.346,0.617c0.42,0.212,0.83,0.431,1.227,0.67
	c1.053,0.629,2.009,1.37,2.869,2.204c0.301,0.402,4.557,4.581,4.543,11.032c0.002,0.249,0.012,0.498,0.002,0.748
	c-0.137,3.861-1.556,7.909-4.133,10.473c-0.252,0.248-0.507,0.484-0.762,0.697c-1.695,1.418-3.765,2.375-5.979,2.738
	c-2.208,0.368-4.539,0.135-6.643-0.695c-1.053-0.412-2.047-0.972-2.955-1.66c-0.457-0.344-0.888-0.723-1.296-1.129
	c-0.374-0.379-0.702-0.767-1.003-1.189c-1.188-1.671-1.782-3.785-1.604-5.878c0.161-2.097,1.08-4.088,2.586-5.595v-0.001
	c1.131-1.132,2.602-1.773,4.13-1.886c1.528-0.121,3.025,0.305,4.241,1.113c1.284,0.877,1.867,1.704,2.136,2.655
	c0.259,0.944,0.077,2.126-0.513,3.237c-0.135,0.271-0.33,0.563-0.478,0.793c-0.118,0.199-0.243,0.375-0.38,0.537
	c-0.271,0.317-0.594,0.572-0.972,0.771c-0.755,0.399-1.714,0.51-2.561,0.475c-1.718-0.082-2.974-0.543-3.476-0.021
	c-0.246,0.243-0.289,0.705-0.023,1.359c0.273,0.645,0.854,1.498,1.957,2.3c1.09,0.781,2.757,1.56,4.997,1.494
	c1.106-0.04,2.339-0.319,3.515-0.911c0.588-0.297,1.154-0.664,1.685-1.093c0.497-0.403,0.933-0.788,1.378-1.269
	c0.879-0.938,1.709-2.089,2.314-3.489c0.608-1.392,0.988-3.04,0.953-4.789c-0.027-1.746-0.494-3.567-1.34-5.189
	c-0.842-1.634-2.041-3.035-3.357-4.171c-2.686-2.331-6.438-3.816-10.379-3.745c-3.924,0.022-8.051,1.661-11.009,4.649
	c-3.196,3.176-5.194,7.542-5.513,11.982c-0.363,4.438,0.914,8.967,3.49,12.538c0.641,0.892,1.363,1.729,2.125,2.489
	c0.736,0.723,1.52,1.398,2.346,2.014c1.654,1.236,3.477,2.24,5.391,2.969c3.828,1.469,7.979,1.688,11.951,1.135
	c6.768-0.939,12.109-6.173,12.109-6.173c2.357-2.368,4.102-5.162,5.27-8.093c1.172-2.934,1.795-6.01,1.894-9.088
	c0.141-3.873-0.604-7.795-2.161-11.348c1.228,0.133,2.465,0.201,3.696,0.155c3.078-0.099,6.154-0.722,9.09-1.892
	c2.929-1.169,5.724-2.912,8.093-5.271c0,0,5.232-5.343,6.172-12.107c0.551-3.974,0.334-8.126-1.135-11.954
	C286.389,307.923,285.385,306.1,284.148,304.446z M269.358,198c0,42.04-20.945,87.359-23.179,90.939
	c0.198-4.848,8.57-66.519,8.57-90.939c0-24.42-8.372-86.092-8.57-90.939C248.413,110.642,269.358,155.96,269.358,198z M153,39.289
	c28.922,0,54.661,20.945,58.241,23.178c-4.848-0.197-33.82-8.57-58.241-8.57s-53.396,8.373-58.243,8.57
	C98.339,60.234,124.079,39.289,153,39.289z M36.643,198c0-42.04,20.944-87.358,23.177-90.939c-0.197,4.848-8.569,66.52-8.569,90.939
	c0,24.421,8.372,86.092,8.569,90.939C57.587,285.359,36.643,240.041,36.643,198z M153,356.71c-28.921,0-54.661-20.943-58.242-23.177
	c4.848,0.198,33.822,8.57,58.242,8.57c24.422,0,53.395-8.372,58.242-8.57C207.661,335.767,181.922,356.71,153,356.71z
	 M236.049,325.464c-2.717-0.273-5.357-0.38-7.931-0.404c-10.593-0.033-20.157,1.089-28.848,2.215
	c-8.68,1.166-28.464,5.596-46.271,5.596c-17.806,0-37.592-4.43-46.272-5.596c-8.688-1.126-18.253-2.248-28.847-2.215
	c-2.573,0.024-5.212,0.131-7.929,0.404c-1.56-0.015-3.134,0.114-4.685,0.365c0.167-0.378,0.343-0.753,0.498-1.144
	c0.511-1.278,0.954-2.6,1.294-3.956c0.58-2.271,0.853-4.646,0.829-6.984c0.273-2.717,0.38-5.354,0.404-7.928
	c0.033-10.594-1.089-20.159-2.215-28.848c-1.166-8.68-5.596-61.164-5.596-78.97s4.43-70.29,5.596-78.97
	c1.126-8.688,2.248-18.254,2.215-28.848c-0.024-2.572-0.131-5.211-0.404-7.928c0.023-2.338-0.249-4.712-0.829-6.984
	c-0.34-1.358-0.783-2.678-1.294-3.957c-0.155-0.389-0.331-0.765-0.498-1.143c1.55,0.251,3.124,0.38,4.684,0.364
	c2.718,0.273,5.356,0.379,7.929,0.405c10.594,0.033,20.158-1.09,28.848-2.216c8.681-1.165,28.465-5.595,46.271-5.595
	c17.806,0,37.592,4.43,46.271,5.595c8.688,1.126,18.254,2.249,28.848,2.216c2.573-0.026,5.213-0.132,7.93-0.405
	c1.56,0.016,3.132-0.113,4.685-0.364c-0.169,0.378-0.343,0.753-0.498,1.143c-0.512,1.278-0.955,2.599-1.295,3.957
	c-0.579,2.272-0.854,4.646-0.828,6.984c-0.275,2.717-0.38,5.355-0.405,7.928c-0.032,10.594,1.09,20.159,2.216,28.848
	c1.164,8.68,5.596,61.164,5.596,78.97s-4.432,70.29-5.596,78.97c-1.126,8.688-2.248,18.254-2.216,28.848
	c0.025,2.573,0.13,5.211,0.405,7.928c-0.025,2.339,0.249,4.713,0.828,6.984c0.34,1.356,0.783,2.678,1.295,3.956
	c0.155,0.391,0.329,0.766,0.498,1.144C239.182,325.578,237.609,325.449,236.049,325.464z"/>
</svg>
